<?xml version="1.0" encoding="UTF-8"?>
<svg width="128px" height="128px" viewBox="0 0 128 128" version="1.1" xmlns="http://www.w3.org/2000/svg" xmlns:xlink="http://www.w3.org/1999/xlink">
    <g id="Page-1" stroke="none" stroke-width="1" fill="none" fill-rule="evenodd">
        <g id="fish">
            <path d="M116.4,55.8 C116.4,55.8 100.8,30.3 80.2,28.2 C59.6,26.1 43.8,34.9 43.8,34.9 C43.8,34.9 33.5,27.1 19.9,31.1 C6.3,35.1 3.6,47.1 3.6,47.1 C3.6,47.1 0.8,59.1 11.5,71.1 C22.2,83.1 20.4,96.7 20.4,96.7 C20.4,96.7 26.4,97.9 34.8,95.5 C43.2,93.1 49.2,87.1 49.2,87.1 C49.2,87.1 66.8,98.7 91.6,93.5 C116.4,88.3 124.4,64.3 124.4,64.3 C124.4,64.3 128,60.3 116.4,55.8 Z" id="body" fill="#4A90E2"></path>
            <circle id="eye" fill="#FFFFFF" cx="108.8" cy="60.7" r="4.4"></circle>
            <path d="M43.8,34.9 C43.8,34.9 47.4,29.7 54.2,27.5 C61,25.3 70.2,25.9 70.2,25.9 C70.2,25.9 71,31.5 65.4,35.9 C59.8,40.3 49.8,41.9 43.8,34.9 Z" id="tail-fin" fill="#357ABD"></path>
            <path d="M43.8,63.1 C43.8,63.1 40.6,63.9 39,66.3 C37.4,68.7 37.8,71.9 37.8,71.9 C37.8,71.9 35.4,71.5 34.2,73.1 C33,74.7 33.4,76.7 33.4,76.7 C33.4,76.7 29.4,77.1 27.8,79.9 C26.2,82.7 27,85.9 27,85.9 L43.8,87.1 C43.8,87.1 49.4,76.3 43.8,63.1 Z" id="dorsal-fin" fill="#357ABD"></path>
        </g>
    </g>
</svg>
